# Blender v2.83.1 OBJ File: ''
# www.blender.org
o Cube
v -1.000000 -1.000000 1.000000
v -1.000000 1.000000 -0.999999
v -1.000000 -1.000000 -1.000000
v 1.000000 1.000000 1.000001
v 1.000000 -1.000000 -1.000000
v 1.000000 1.000000 -1.000000
v 1.000000 -1.000000 1.000000
v -1.000000 1.000000 1.000001
vt 0.999608 0.665052
vt 0.750001 0.334786
vt 0.999610 0.334788
vt 0.499999 0.666612
vt 0.251241 0.333741
vt 0.499381 0.333742
vt 0.249999 0.665049
vt 0.000001 0.333739
vt 0.251243 0.002525
vt 0.499383 0.002527
vt 0.499009 0.999989
vt 0.499011 0.665050
vt 0.749999 0.665050
vt -0.000001 0.666609
vt 0.499997 0.999989
vt 0.249997 0.999987
vt 0.249999 0.666611
vt 0.250001 0.333413
vt 0.000001 0.333411
vt 0.249999 0.665049
vt -0.000001 0.665047
vn -1.0000 -0.0000 0.0000
vn 1.0000 0.0000 0.0000
vn 0.0000 -1.0000 -0.0000
vn -0.0000 0.0000 -1.0000
vn 0.0000 -0.0000 1.0000
vn 0.0000 1.0000 0.0000
s off
f 1/1/1 2/2/1 3/3/1
f 4/4/2 5/5/2 6/6/2
f 7/7/3 3/8/3 5/5/3
f 6/6/4 3/9/4 2/10/4
f 8/11/5 7/7/5 4/12/5
f 1/1/1 8/13/1 2/2/1
f 4/4/2 7/7/2 5/5/2
f 7/7/3 1/14/3 3/8/3
f 6/6/4 5/5/4 3/9/4
f 8/15/5 1/16/5 7/7/5
f 4/17/6 6/18/6 2/19/6
f 4/20/6 2/19/6 8/21/6
